<?xml version="1.0" encoding="UTF-8"?>
<svg width="5px" height="365px" viewBox="0 0 5 365" version="1.1" xmlns="http://www.w3.org/2000/svg" xmlns:xlink="http://www.w3.org/1999/xlink">
    <title>•••••••••••••••••••••••••••••••••••••••••••••••••••••••••••••••••••••••••••••</title>
    <g id="Website" stroke="none" stroke-width="1" fill="none" fill-rule="evenodd">
        <g id="Login-desktop-(alternatief)" transform="translate(-298.000000, -535.000000)" fill="#E84E10" fill-rule="nonzero">
            <path d="M-37.08,876.872 C-36.008,876.872 -35.144,876.008 -35.144,874.936 C-35.144,873.88 -36.008,873 -37.08,873 C-38.136,873 -39,873.88 -39,874.936 C-39,876.008 -38.136,876.872 -37.08,876.872 Z M-28.2,876.872 C-27.128,876.872 -26.264,876.008 -26.264,874.936 C-26.264,873.88 -27.128,873 -28.2,873 C-29.256,873 -30.12,873.88 -30.12,874.936 C-30.12,876.008 -29.256,876.872 -28.2,876.872 Z M-19.32,876.872 C-18.248,876.872 -17.384,876.008 -17.384,874.936 C-17.384,873.88 -18.248,873 -19.32,873 C-20.376,873 -21.24,873.88 -21.24,874.936 C-21.24,876.008 -20.376,876.872 -19.32,876.872 Z M-10.44,876.872 C-9.368,876.872 -8.504,876.008 -8.504,874.936 C-8.504,873.88 -9.368,873 -10.44,873 C-11.496,873 -12.36,873.88 -12.36,874.936 C-12.36,876.008 -11.496,876.872 -10.44,876.872 Z M-1.56,876.872 C-0.488,876.872 0.376,876.008 0.376,874.936 C0.376,873.88 -0.488,873 -1.56,873 C-2.616,873 -3.48,873.88 -3.48,874.936 C-3.48,876.008 -2.616,876.872 -1.56,876.872 Z M7.32,876.872 C8.392,876.872 9.256,876.008 9.256,874.936 C9.256,873.88 8.392,873 7.32,873 C6.264,873 5.4,873.88 5.4,874.936 C5.4,876.008 6.264,876.872 7.32,876.872 Z M16.2,876.872 C17.272,876.872 18.136,876.008 18.136,874.936 C18.136,873.88 17.272,873 16.2,873 C15.144,873 14.28,873.88 14.28,874.936 C14.28,876.008 15.144,876.872 16.2,876.872 Z M25.08,876.872 C26.152,876.872 27.016,876.008 27.016,874.936 C27.016,873.88 26.152,873 25.08,873 C24.024,873 23.16,873.88 23.16,874.936 C23.16,876.008 24.024,876.872 25.08,876.872 Z M33.96,876.872 C35.032,876.872 35.896,876.008 35.896,874.936 C35.896,873.88 35.032,873 33.96,873 C32.904,873 32.04,873.88 32.04,874.936 C32.04,876.008 32.904,876.872 33.96,876.872 Z M42.84,876.872 C43.912,876.872 44.776,876.008 44.776,874.936 C44.776,873.88 43.912,873 42.84,873 C41.784,873 40.92,873.88 40.92,874.936 C40.92,876.008 41.784,876.872 42.84,876.872 Z M51.72,876.872 C52.792,876.872 53.656,876.008 53.656,874.936 C53.656,873.88 52.792,873 51.72,873 C50.664,873 49.8,873.88 49.8,874.936 C49.8,876.008 50.664,876.872 51.72,876.872 Z M60.6,876.872 C61.672,876.872 62.536,876.008 62.536,874.936 C62.536,873.88 61.672,873 60.6,873 C59.544,873 58.68,873.88 58.68,874.936 C58.68,876.008 59.544,876.872 60.6,876.872 Z M69.48,876.872 C70.552,876.872 71.416,876.008 71.416,874.936 C71.416,873.88 70.552,873 69.48,873 C68.424,873 67.56,873.88 67.56,874.936 C67.56,876.008 68.424,876.872 69.48,876.872 Z M78.36,876.872 C79.432,876.872 80.296,876.008 80.296,874.936 C80.296,873.88 79.432,873 78.36,873 C77.304,873 76.44,873.88 76.44,874.936 C76.44,876.008 77.304,876.872 78.36,876.872 Z M87.24,876.872 C88.312,876.872 89.176,876.008 89.176,874.936 C89.176,873.88 88.312,873 87.24,873 C86.184,873 85.32,873.88 85.32,874.936 C85.32,876.008 86.184,876.872 87.24,876.872 Z M96.12,876.872 C97.192,876.872 98.056,876.008 98.056,874.936 C98.056,873.88 97.192,873 96.12,873 C95.064,873 94.2,873.88 94.2,874.936 C94.2,876.008 95.064,876.872 96.12,876.872 Z M105,876.872 C106.072,876.872 106.936,876.008 106.936,874.936 C106.936,873.88 106.072,873 105,873 C103.944,873 103.08,873.88 103.08,874.936 C103.08,876.008 103.944,876.872 105,876.872 Z M113.88,876.872 C114.952,876.872 115.816,876.008 115.816,874.936 C115.816,873.88 114.952,873 113.88,873 C112.824,873 111.96,873.88 111.96,874.936 C111.96,876.008 112.824,876.872 113.88,876.872 Z M122.76,876.872 C123.832,876.872 124.696,876.008 124.696,874.936 C124.696,873.88 123.832,873 122.76,873 C121.704,873 120.84,873.88 120.84,874.936 C120.84,876.008 121.704,876.872 122.76,876.872 Z M131.64,876.872 C132.712,876.872 133.576,876.008 133.576,874.936 C133.576,873.88 132.712,873 131.64,873 C130.584,873 129.72,873.88 129.72,874.936 C129.72,876.008 130.584,876.872 131.64,876.872 Z M140.52,876.872 C141.592,876.872 142.456,876.008 142.456,874.936 C142.456,873.88 141.592,873 140.52,873 C139.464,873 138.6,873.88 138.6,874.936 C138.6,876.008 139.464,876.872 140.52,876.872 Z M149.4,876.872 C150.472,876.872 151.336,876.008 151.336,874.936 C151.336,873.88 150.472,873 149.4,873 C148.344,873 147.48,873.88 147.48,874.936 C147.48,876.008 148.344,876.872 149.4,876.872 Z M158.28,876.872 C159.352,876.872 160.216,876.008 160.216,874.936 C160.216,873.88 159.352,873 158.28,873 C157.224,873 156.36,873.88 156.36,874.936 C156.36,876.008 157.224,876.872 158.28,876.872 Z M167.16,876.872 C168.232,876.872 169.096,876.008 169.096,874.936 C169.096,873.88 168.232,873 167.16,873 C166.104,873 165.24,873.88 165.24,874.936 C165.24,876.008 166.104,876.872 167.16,876.872 Z M176.04,876.872 C177.112,876.872 177.976,876.008 177.976,874.936 C177.976,873.88 177.112,873 176.04,873 C174.984,873 174.12,873.88 174.12,874.936 C174.12,876.008 174.984,876.872 176.04,876.872 Z M184.92,876.872 C185.992,876.872 186.856,876.008 186.856,874.936 C186.856,873.88 185.992,873 184.92,873 C183.864,873 183,873.88 183,874.936 C183,876.008 183.864,876.872 184.92,876.872 Z M193.8,876.872 C194.872,876.872 195.736,876.008 195.736,874.936 C195.736,873.88 194.872,873 193.8,873 C192.744,873 191.88,873.88 191.88,874.936 C191.88,876.008 192.744,876.872 193.8,876.872 Z M202.68,876.872 C203.752,876.872 204.616,876.008 204.616,874.936 C204.616,873.88 203.752,873 202.68,873 C201.624,873 200.76,873.88 200.76,874.936 C200.76,876.008 201.624,876.872 202.68,876.872 Z M211.56,876.872 C212.632,876.872 213.496,876.008 213.496,874.936 C213.496,873.88 212.632,873 211.56,873 C210.504,873 209.64,873.88 209.64,874.936 C209.64,876.008 210.504,876.872 211.56,876.872 Z M220.44,876.872 C221.512,876.872 222.376,876.008 222.376,874.936 C222.376,873.88 221.512,873 220.44,873 C219.384,873 218.52,873.88 218.52,874.936 C218.52,876.008 219.384,876.872 220.44,876.872 Z M229.32,876.872 C230.392,876.872 231.256,876.008 231.256,874.936 C231.256,873.88 230.392,873 229.32,873 C228.264,873 227.4,873.88 227.4,874.936 C227.4,876.008 228.264,876.872 229.32,876.872 Z M238.2,876.872 C239.272,876.872 240.136,876.008 240.136,874.936 C240.136,873.88 239.272,873 238.2,873 C237.144,873 236.28,873.88 236.28,874.936 C236.28,876.008 237.144,876.872 238.2,876.872 Z M247.08,876.872 C248.152,876.872 249.016,876.008 249.016,874.936 C249.016,873.88 248.152,873 247.08,873 C246.024,873 245.16,873.88 245.16,874.936 C245.16,876.008 246.024,876.872 247.08,876.872 Z M255.96,876.872 C257.032,876.872 257.896,876.008 257.896,874.936 C257.896,873.88 257.032,873 255.96,873 C254.904,873 254.04,873.88 254.04,874.936 C254.04,876.008 254.904,876.872 255.96,876.872 Z M264.84,876.872 C265.912,876.872 266.776,876.008 266.776,874.936 C266.776,873.88 265.912,873 264.84,873 C263.784,873 262.92,873.88 262.92,874.936 C262.92,876.008 263.784,876.872 264.84,876.872 Z M273.72,876.872 C274.792,876.872 275.656,876.008 275.656,874.936 C275.656,873.88 274.792,873 273.72,873 C272.664,873 271.8,873.88 271.8,874.936 C271.8,876.008 272.664,876.872 273.72,876.872 Z M282.6,876.872 C283.672,876.872 284.536,876.008 284.536,874.936 C284.536,873.88 283.672,873 282.6,873 C281.544,873 280.68,873.88 280.68,874.936 C280.68,876.008 281.544,876.872 282.6,876.872 Z M291.48,876.872 C292.552,876.872 293.416,876.008 293.416,874.936 C293.416,873.88 292.552,873 291.48,873 C290.424,873 289.56,873.88 289.56,874.936 C289.56,876.008 290.424,876.872 291.48,876.872 Z M300.36,876.872 C301.432,876.872 302.296,876.008 302.296,874.936 C302.296,873.88 301.432,873 300.36,873 C299.304,873 298.44,873.88 298.44,874.936 C298.44,876.008 299.304,876.872 300.36,876.872 Z M309.24,876.872 C310.312,876.872 311.176,876.008 311.176,874.936 C311.176,873.88 310.312,873 309.24,873 C308.184,873 307.32,873.88 307.32,874.936 C307.32,876.008 308.184,876.872 309.24,876.872 Z M318.12,876.872 C319.192,876.872 320.056,876.008 320.056,874.936 C320.056,873.88 319.192,873 318.12,873 C317.064,873 316.2,873.88 316.2,874.936 C316.2,876.008 317.064,876.872 318.12,876.872 Z M327,876.872 C328.072,876.872 328.936,876.008 328.936,874.936 C328.936,873.88 328.072,873 327,873 C325.944,873 325.08,873.88 325.08,874.936 C325.08,876.008 325.944,876.872 327,876.872 Z M335.88,876.872 C336.952,876.872 337.816,876.008 337.816,874.936 C337.816,873.88 336.952,873 335.88,873 C334.824,873 333.96,873.88 333.96,874.936 C333.96,876.008 334.824,876.872 335.88,876.872 Z M344.76,876.872 C345.832,876.872 346.696,876.008 346.696,874.936 C346.696,873.88 345.832,873 344.76,873 C343.704,873 342.84,873.88 342.84,874.936 C342.84,876.008 343.704,876.872 344.76,876.872 Z M353.64,876.872 C354.712,876.872 355.576,876.008 355.576,874.936 C355.576,873.88 354.712,873 353.64,873 C352.584,873 351.72,873.88 351.72,874.936 C351.72,876.008 352.584,876.872 353.64,876.872 Z M362.52,876.872 C363.592,876.872 364.456,876.008 364.456,874.936 C364.456,873.88 363.592,873 362.52,873 C361.464,873 360.6,873.88 360.6,874.936 C360.6,876.008 361.464,876.872 362.52,876.872 Z M371.4,876.872 C372.472,876.872 373.336,876.008 373.336,874.936 C373.336,873.88 372.472,873 371.4,873 C370.344,873 369.48,873.88 369.48,874.936 C369.48,876.008 370.344,876.872 371.4,876.872 Z M380.28,876.872 C381.352,876.872 382.216,876.008 382.216,874.936 C382.216,873.88 381.352,873 380.28,873 C379.224,873 378.36,873.88 378.36,874.936 C378.36,876.008 379.224,876.872 380.28,876.872 Z M389.16,876.872 C390.232,876.872 391.096,876.008 391.096,874.936 C391.096,873.88 390.232,873 389.16,873 C388.104,873 387.24,873.88 387.24,874.936 C387.24,876.008 388.104,876.872 389.16,876.872 Z M398.04,876.872 C399.112,876.872 399.976,876.008 399.976,874.936 C399.976,873.88 399.112,873 398.04,873 C396.984,873 396.12,873.88 396.12,874.936 C396.12,876.008 396.984,876.872 398.04,876.872 Z M406.92,876.872 C407.992,876.872 408.856,876.008 408.856,874.936 C408.856,873.88 407.992,873 406.92,873 C405.864,873 405,873.88 405,874.936 C405,876.008 405.864,876.872 406.92,876.872 Z M415.8,876.872 C416.872,876.872 417.736,876.008 417.736,874.936 C417.736,873.88 416.872,873 415.8,873 C414.744,873 413.88,873.88 413.88,874.936 C413.88,876.008 414.744,876.872 415.8,876.872 Z M424.68,876.872 C425.752,876.872 426.616,876.008 426.616,874.936 C426.616,873.88 425.752,873 424.68,873 C423.624,873 422.76,873.88 422.76,874.936 C422.76,876.008 423.624,876.872 424.68,876.872 Z M433.56,876.872 C434.632,876.872 435.496,876.008 435.496,874.936 C435.496,873.88 434.632,873 433.56,873 C432.504,873 431.64,873.88 431.64,874.936 C431.64,876.008 432.504,876.872 433.56,876.872 Z M442.44,876.872 C443.512,876.872 444.376,876.008 444.376,874.936 C444.376,873.88 443.512,873 442.44,873 C441.384,873 440.52,873.88 440.52,874.936 C440.52,876.008 441.384,876.872 442.44,876.872 Z M451.32,876.872 C452.392,876.872 453.256,876.008 453.256,874.936 C453.256,873.88 452.392,873 451.32,873 C450.264,873 449.4,873.88 449.4,874.936 C449.4,876.008 450.264,876.872 451.32,876.872 Z M460.2,876.872 C461.272,876.872 462.136,876.008 462.136,874.936 C462.136,873.88 461.272,873 460.2,873 C459.144,873 458.28,873.88 458.28,874.936 C458.28,876.008 459.144,876.872 460.2,876.872 Z M469.08,876.872 C470.152,876.872 471.016,876.008 471.016,874.936 C471.016,873.88 470.152,873 469.08,873 C468.024,873 467.16,873.88 467.16,874.936 C467.16,876.008 468.024,876.872 469.08,876.872 Z M477.96,876.872 C479.032,876.872 479.896,876.008 479.896,874.936 C479.896,873.88 479.032,873 477.96,873 C476.904,873 476.04,873.88 476.04,874.936 C476.04,876.008 476.904,876.872 477.96,876.872 Z M486.84,876.872 C487.912,876.872 488.776,876.008 488.776,874.936 C488.776,873.88 487.912,873 486.84,873 C485.784,873 484.92,873.88 484.92,874.936 C484.92,876.008 485.784,876.872 486.84,876.872 Z M495.72,876.872 C496.792,876.872 497.656,876.008 497.656,874.936 C497.656,873.88 496.792,873 495.72,873 C494.664,873 493.8,873.88 493.8,874.936 C493.8,876.008 494.664,876.872 495.72,876.872 Z M504.6,876.872 C505.672,876.872 506.536,876.008 506.536,874.936 C506.536,873.88 505.672,873 504.6,873 C503.544,873 502.68,873.88 502.68,874.936 C502.68,876.008 503.544,876.872 504.6,876.872 Z M513.48,876.872 C514.552,876.872 515.416,876.008 515.416,874.936 C515.416,873.88 514.552,873 513.48,873 C512.424,873 511.56,873.88 511.56,874.936 C511.56,876.008 512.424,876.872 513.48,876.872 Z M522.36,876.872 C523.432,876.872 524.296,876.008 524.296,874.936 C524.296,873.88 523.432,873 522.36,873 C521.304,873 520.44,873.88 520.44,874.936 C520.44,876.008 521.304,876.872 522.36,876.872 Z M531.24,876.872 C532.312,876.872 533.176,876.008 533.176,874.936 C533.176,873.88 532.312,873 531.24,873 C530.184,873 529.32,873.88 529.32,874.936 C529.32,876.008 530.184,876.872 531.24,876.872 Z M540.12,876.872 C541.192,876.872 542.056,876.008 542.056,874.936 C542.056,873.88 541.192,873 540.12,873 C539.064,873 538.2,873.88 538.2,874.936 C538.2,876.008 539.064,876.872 540.12,876.872 Z M549,876.872 C550.072,876.872 550.936,876.008 550.936,874.936 C550.936,873.88 550.072,873 549,873 C547.944,873 547.08,873.88 547.08,874.936 C547.08,876.008 547.944,876.872 549,876.872 Z M557.88,876.872 C558.952,876.872 559.816,876.008 559.816,874.936 C559.816,873.88 558.952,873 557.88,873 C556.824,873 555.96,873.88 555.96,874.936 C555.96,876.008 556.824,876.872 557.88,876.872 Z M566.76,876.872 C567.832,876.872 568.696,876.008 568.696,874.936 C568.696,873.88 567.832,873 566.76,873 C565.704,873 564.84,873.88 564.84,874.936 C564.84,876.008 565.704,876.872 566.76,876.872 Z M575.64,876.872 C576.712,876.872 577.576,876.008 577.576,874.936 C577.576,873.88 576.712,873 575.64,873 C574.584,873 573.72,873.88 573.72,874.936 C573.72,876.008 574.584,876.872 575.64,876.872 Z M584.52,876.872 C585.592,876.872 586.456,876.008 586.456,874.936 C586.456,873.88 585.592,873 584.52,873 C583.464,873 582.6,873.88 582.6,874.936 C582.6,876.008 583.464,876.872 584.52,876.872 Z M593.4,876.872 C594.472,876.872 595.336,876.008 595.336,874.936 C595.336,873.88 594.472,873 593.4,873 C592.344,873 591.48,873.88 591.48,874.936 C591.48,876.008 592.344,876.872 593.4,876.872 Z M602.28,876.872 C603.352,876.872 604.216,876.008 604.216,874.936 C604.216,873.88 603.352,873 602.28,873 C601.224,873 600.36,873.88 600.36,874.936 C600.36,876.008 601.224,876.872 602.28,876.872 Z M611.16,876.872 C612.232,876.872 613.096,876.008 613.096,874.936 C613.096,873.88 612.232,873 611.16,873 C610.104,873 609.24,873.88 609.24,874.936 C609.24,876.008 610.104,876.872 611.16,876.872 Z M620.04,876.872 C621.112,876.872 621.976,876.008 621.976,874.936 C621.976,873.88 621.112,873 620.04,873 C618.984,873 618.12,873.88 618.12,874.936 C618.12,876.008 618.984,876.872 620.04,876.872 Z M628.92,876.872 C629.992,876.872 630.856,876.008 630.856,874.936 C630.856,873.88 629.992,873 628.92,873 C627.864,873 627,873.88 627,874.936 C627,876.008 627.864,876.872 628.92,876.872 Z M637.8,876.872 C638.872,876.872 639.736,876.008 639.736,874.936 C639.736,873.88 638.872,873 637.8,873 C636.744,873 635.88,873.88 635.88,874.936 C635.88,876.008 636.744,876.872 637.8,876.872 Z" id="•••••••••••••••••••••••••••••••••••••••••••••••••••••••••••••••••••••••••••••" transform="translate(300.368000, 874.936000) rotate(-270.000000) translate(-300.368000, -874.936000) "></path>
        </g>
    </g>
</svg>