<?xml version="1.0" encoding="UTF-8"?>
<svg width="60px" height="81px" viewBox="0 0 60 81" version="1.1" xmlns="http://www.w3.org/2000/svg" xmlns:xlink="http://www.w3.org/1999/xlink">
    <title>logo_small</title>
    <g id="Website" stroke="none" stroke-width="1" fill="none" fill-rule="evenodd">
        <g id="Login-desktop" transform="translate(-255.000000, -80.000000)" fill="#001C3D" fill-rule="nonzero">
            <g id="logo_small" transform="translate(255.000000, 80.000000)">
                <g id="Group-3" transform="translate(0.000000, 0.169749)">
                    <path d="M1.62409768e-13,3.0075883e-15 L1.62409768e-13,47.1306821 L48.5848006,25.0509188 L1.62409768e-13,3.0075883e-15 Z M14.2533902,32.8143733 C10.1893156,32.8143733 7.27874836,30.9943949 7.27874836,26.3850259 C7.27874836,22.5644695 7.33933663,19.3486306 7.3999249,16.1957103 L11.6457644,16.1957103 C11.5851761,19.4709723 11.5851761,22.7450691 11.5851761,26.0809194 C11.5851761,28.5067805 12.4940001,29.4785231 14.3151437,29.4785231 C15.6492507,29.4785231 17.1056995,28.8714752 17.1056995,26.0203311 L17.1662878,16.2539683 L21.4132924,16.2539683 L21.3515389,26.5062024 C21.2897855,30.6308653 18.4386414,32.8143733 14.2533902,32.8143733" id="Shape"></path>
                    <path d="M10.3104921,57.3794208 L58.8952927,79.458019 L58.8952927,32.3296672 L10.3104921,57.3794208 Z M51.3753564,64.0522865 L49.6159663,52.4671104 L49.5553781,52.4671104 L46.7053991,64.0522865 L41.8525118,64.0522865 L39.1842977,52.4671104 L39.1225442,52.4671104 L36.7572714,64.0522865 L32.6326085,64.0522865 L36.5149184,47.8565762 L41.7907584,47.8565762 L44.1560312,59.6852705 L44.2177846,59.6852705 L47.129517,47.8565762 L52.405357,47.8565762 L55.6211959,64.0522865 L51.3753564,64.0522865 Z" id="Shape"></path>
                </g>
            </g>
        </g>
    </g>
</svg>