<?xml version="1.0" encoding="UTF-8"?>
<svg width="320px" height="48px" viewBox="0 0 320 48" version="1.1" xmlns="http://www.w3.org/2000/svg" xmlns:xlink="http://www.w3.org/1999/xlink">
    <title>logo_full</title>
    <g id="Website" stroke="none" stroke-width="1" fill="none" fill-rule="evenodd">
        <g id="FAQ" transform="translate(-40.000000, -40.000000)" fill="#FFFFFF" fill-rule="nonzero">
            <g id="logo_full" transform="translate(40.000000, 40.000000)">
                <path d="M34.7850323,19.323871 L34.7850323,47.1590538 L6.08963441,34.1188817 L34.7850323,19.323871 Z M309.990538,20.1476129 L311.888516,25.5208602 C312.318624,26.7389247 312.677161,28.100129 312.999914,29.3904516 L313.035011,29.3904516 C313.357763,28.1366022 313.931699,26.2737204 314.396903,24.9483011 L316.045075,20.1833978 L319.914667,20.1833978 L314.109935,35.4443011 C312.461763,39.8155699 310.993204,41.1403011 307.76843,41.1403011 C307.159398,41.1403011 306.372129,41.0687312 305.798194,40.9255914 L306.012903,37.8088602 C306.658409,38.0235699 307.266753,38.1316129 307.947355,38.1316129 C309.130323,38.1316129 309.917591,37.5955269 310.670452,35.5172473 L311.137032,34.1553548 L305.977118,20.1476129 L309.990538,20.1476129 Z M24.6826667,28.4944516 L21.5666237,28.4944516 L19.2736344,38.060043 L21.7097634,38.060043 L23.1067527,31.2175484 L23.1432258,31.2175484 L24.7191398,38.060043 L27.5853763,38.060043 L29.2686452,31.2175484 L29.3044301,31.2175484 L30.3435699,38.060043 L32.8512688,38.060043 L30.951914,28.4944516 L27.835871,28.4944516 L26.116129,35.4807742 L26.0796559,35.4807742 L24.6826667,28.4944516 Z M257.973677,19.8255484 C262.05729,19.8255484 263.885075,22.6195269 263.885075,26.0954839 C263.884387,26.56 263.847914,27.0974624 263.777032,27.7064946 L255.071656,27.7064946 C255.035183,30.3222366 256.325505,31.6111828 258.939871,31.6111828 C260.337548,31.6111828 261.806796,31.2884301 263.02486,30.7523441 L263.347613,33.5470108 C261.841892,34.156043 260.087054,34.4423226 258.331527,34.4423226 C253.889376,34.4423226 251.382366,32.2215914 251.382366,27.2770753 C251.382366,22.9787527 253.745548,19.8255484 257.973677,19.8255484 Z M210.612989,15.059957 L210.612989,26.7031398 C210.612989,31.9697204 207.747441,34.4416344 202.694882,34.4416344 C196.677505,34.4416344 195.315613,31.1810753 195.315613,27.5275699 L195.315613,15.0964301 L199.004903,15.0964301 L199.004903,27.312172 C199.004903,29.7111398 199.793548,31.3957849 202.946065,31.3957849 C205.77514,31.3957849 206.958108,30.2141935 206.958108,26.9536344 L206.958108,15.059957 L210.612989,15.059957 Z M114.458839,19.7890753 C115.282581,19.7890753 116.178581,19.8971183 117.038108,20.0402581 L116.930753,22.9058065 C116.142796,22.6917849 115.211699,22.547957 114.352172,22.547957 C112.954495,22.547957 112.273892,23.1205161 112.273892,23.9807312 C112.273892,26.2737204 118.041462,25.2345806 118.041462,29.7847742 C118.005677,32.5436559 115.570237,34.4051613 111.737118,34.4051613 C110.734452,34.4051613 109.695312,34.2978065 108.798624,34.1553548 L108.870194,31.1810753 C109.730409,31.3957849 110.805333,31.6111828 111.87957,31.6111828 C113.276559,31.6111828 114.172559,31.0386237 114.172559,30.1068387 C114.172559,27.6349247 108.511656,29.031914 108.511656,24.2670108 C108.511656,21.7950968 110.518366,19.7890753 114.458839,19.7890753 Z M125.421419,14.8094624 L125.421419,20.0753548 L128.82443,20.0753548 L128.82443,22.8700215 L125.421419,22.8700215 L125.421419,29.0312258 C125.421419,30.8232258 125.850839,31.3606882 127.07028,31.3606882 C127.678624,31.3606882 128.323441,31.2884301 128.825118,31.1459785 L128.825118,34.0466237 C127.929118,34.2627097 126.890667,34.4051613 125.887312,34.4051613 C122.771269,34.4051613 121.838796,33.260043 121.838796,29.9994839 L121.838796,22.9051183 L119.403355,22.9051183 L119.403355,20.1111398 L121.803011,20.1111398 L121.803011,15.7763441 L125.421419,14.8094624 Z M84.9046022,19.8592688 C89.4183226,19.8592688 90.6728602,21.6863656 90.6728602,24.7322151 L90.6728602,30.5706667 C90.6728602,31.7171613 90.7086452,33.0425806 90.7444301,34.1890753 L87.3765161,34.1890753 L87.3765161,34.1188817 C87.3765161,33.2951398 87.4123011,32.4707097 87.5196559,31.7543226 L87.483871,31.7178495 C86.8032688,33.2944516 85.0835269,34.4044731 83.0059355,34.4044731 C80.4624516,34.4044731 78.9932043,32.9716989 78.9932043,30.7151828 C78.9932043,27.347957 82.3253333,25.5931183 87.0902366,25.5931183 L87.0902366,24.8402581 C87.0902366,23.3710108 86.3731613,22.6181505 84.3671398,22.6181505 C83.1132903,22.6181505 81.3942366,23.0482581 80.2112688,23.7295484 L79.8892043,20.7194839 C81.2861935,20.2178065 83.1132903,19.8592688 84.9046022,19.8592688 Z M182.060731,14.8094624 L182.060731,20.0753548 L185.463742,20.0753548 L185.463742,22.8700215 L182.060731,22.8700215 L182.060731,29.0312258 C182.060731,30.8232258 182.490839,31.3606882 183.708903,31.3606882 C184.317935,31.3606882 184.962065,31.2884301 185.46443,31.1459785 L185.46443,34.0466237 C184.569118,34.2627097 183.529978,34.4051613 182.526624,34.4051613 C179.409892,34.4051613 178.478108,33.260043 178.478108,29.9994839 L178.478108,22.9051183 L176.041978,22.9051183 L176.041978,20.1111398 L178.442323,20.1111398 L178.442323,15.7763441 L182.060731,14.8094624 Z M282.083097,19.7890753 C282.905462,19.7890753 283.802151,19.8971183 284.660989,20.0402581 L284.555011,22.9058065 C283.766366,22.6917849 282.834581,22.547957 281.975742,22.547957 C280.578065,22.547957 279.897462,23.1205161 279.897462,23.9807312 C279.897462,26.2737204 285.665032,25.2345806 285.665032,29.7847742 C285.628559,32.5436559 283.193118,34.4051613 279.36,34.4051613 C278.357333,34.4051613 277.318194,34.2978065 276.421505,34.1553548 L276.493075,31.1810753 C277.35329,31.3957849 278.428215,31.6111828 279.503828,31.6111828 C280.900129,31.6111828 281.795441,31.0386237 281.795441,30.1068387 C281.795441,27.6349247 276.135226,29.031914 276.135226,24.2670108 C276.135226,21.7950968 278.141935,19.7890753 282.083097,19.7890753 Z M301.069763,14.8094624 L301.069763,20.0753548 L304.472774,20.0753548 L304.472774,22.8700215 L301.069763,22.8700215 L301.069763,29.0312258 C301.069763,30.8232258 301.499871,31.3606882 302.717935,31.3606882 C303.326968,31.3606882 303.971785,31.2884301 304.473462,31.1459785 L304.473462,34.0466237 C303.577462,34.2627097 302.539011,34.4051613 301.536344,34.4051613 C298.419613,34.4051613 297.487828,33.260043 297.487828,29.9994839 L297.487828,22.9051183 L295.051011,22.9051183 L295.051011,20.1111398 L297.451355,20.1111398 L297.451355,15.7763441 L301.069763,14.8094624 Z M155.909505,19.859957 C156.876387,19.859957 157.879054,20.0037849 158.775054,20.2535914 L158.416516,23.3710108 C157.664344,23.0847312 156.767656,22.8693333 155.873032,22.8693333 C153.580731,22.8693333 152.433548,24.551914 152.433548,27.204129 C152.433548,29.6044731 153.365333,31.2526452 155.765677,31.2526452 C156.733247,31.2526452 157.771699,31.0379355 158.524559,30.6436129 L158.810839,33.7245591 C157.843269,34.1188817 156.44628,34.4051613 154.97772,34.4051613 C151.072344,34.4051613 148.672,32.3633548 148.672,27.5984516 C148.672,23.2271828 150.964989,19.859957 155.909505,19.859957 Z M99.5557849,19.8592688 C104.070194,19.8592688 105.324043,21.6863656 105.324043,24.7322151 L105.324043,30.5706667 C105.324043,31.7171613 105.359828,33.0425806 105.395613,34.1890753 L102.027699,34.1890753 L102.027699,34.1188817 L102.028387,34.1188817 C102.028387,33.2951398 102.064172,32.4707097 102.171527,31.7543226 L102.135054,31.7178495 C101.45514,33.2944516 99.7353978,34.4044731 97.6571183,34.4044731 C95.1143226,34.4044731 93.6450753,32.9716989 93.6450753,30.7151828 C93.6450753,27.347957 96.9765161,25.5931183 101.741419,25.5931183 L101.741419,24.8402581 C101.741419,23.3710108 101.025032,22.6181505 99.0190108,22.6181505 C97.7651613,22.6181505 96.0461075,23.0482581 94.8631398,23.7295484 L94.5403871,20.7194839 C95.9373763,20.2178065 97.7651613,19.8592688 99.5557849,19.8592688 Z M165.367054,13.5563011 L165.367054,19.5743656 C165.367054,20.4338925 165.295484,21.616172 165.116559,22.4406022 L165.188129,22.4770753 C166.011871,20.8997849 167.624258,19.8613333 169.773419,19.8613333 C172.925935,19.8613333 173.965075,21.9031398 173.965075,24.339957 L173.965075,34.1904516 L170.346667,34.1904516 L170.346667,34.1188817 L170.345978,34.1188817 L170.345978,25.1630108 C170.345978,23.6937634 169.952344,22.8335484 168.626237,22.8335484 C166.799828,22.8335484 165.367054,24.911828 165.367054,27.3830538 L165.367054,34.1546667 L161.748645,34.1546667 L161.748645,13.5563011 L165.367054,13.5563011 Z M139.536516,19.8606452 L139.393376,23.3716989 C136.814108,22.8342366 135.488688,24.5181935 135.488688,28.4228817 L135.488688,34.1553548 L131.869591,34.1553548 L131.869591,20.1476129 L135.27329,20.1476129 C135.27329,20.864 135.20172,21.9753978 135.022796,22.9780645 L135.094366,22.9780645 C135.774968,21.1860645 137.136172,19.6466237 139.536516,19.8606452 Z M274.523527,19.8606452 L274.380387,23.3716989 C271.801118,22.8342366 270.475699,24.5181935 270.475699,28.4228817 L270.475699,34.1553548 L266.85729,34.1553548 L266.85729,20.1476129 L270.260301,20.1476129 C270.260301,20.864 270.188731,21.9753978 270.009118,22.9780645 L270.081376,22.9780645 C270.76129,21.1860645 272.123183,19.6466237 274.523527,19.8606452 Z M222.255484,19.8248602 C225.408688,19.8248602 226.447828,21.8659785 226.447828,24.3027957 L226.447828,34.1546667 L222.829419,34.1546667 L222.829419,25.1630108 C222.829419,23.6937634 222.434409,22.8335484 221.110366,22.8335484 C219.282581,22.8335484 217.849806,24.911828 217.849806,27.3830538 L217.849806,34.1546667 L214.231398,34.1546667 L214.231398,20.1476129 L217.634409,20.1476129 C217.634409,20.7924301 217.562839,21.9024516 217.455484,22.6188387 L217.490581,22.6553118 C218.350796,21.007828 219.962495,19.8248602 222.255484,19.8248602 Z M233.862882,20.1111398 L233.862882,34.1188817 L230.244473,34.1188817 L230.244473,20.1111398 L233.862882,20.1111398 Z M240.167914,20.1111398 L242.388645,26.416172 C242.711398,27.3837419 243.069935,28.4944516 243.321118,29.5329032 L243.392688,29.5329032 C243.607398,28.5667097 243.894366,27.4910968 244.252903,26.56 L246.509419,20.1111398 L250.342538,20.1111398 L245.075269,34.1188817 L241.421763,34.1188817 L236.226753,20.1111398 L240.167914,20.1111398 Z M61.007828,14.9876989 L64.196129,24.7686882 C64.6620215,26.1292043 64.9847742,27.4195269 65.2352688,28.7807312 L65.3068387,28.7807312 C65.5931183,27.3114839 65.915871,26.2365591 66.3817634,24.8395699 L69.6430108,14.9883871 L73.9062366,14.9883871 L76.8791398,34.0466237 L73.0460215,34.0466237 L73.0460215,34.1188817 L71.684129,25.0191828 C71.3978495,23.2271828 71.2182366,21.7944086 71.0750968,20.4696774 L71.0035269,20.4696774 C70.7530323,21.6870538 70.4302796,23.0489462 69.9643871,24.5175054 L66.9550108,34.0817204 L63.3008172,34.0817204 L60.3987957,25.2338925 C59.8971183,23.6937634 59.3954409,21.9747097 59.1807312,20.4332043 L59.1091613,20.4332043 C59.0018065,22.1171613 58.7864086,23.6208172 58.5716989,25.2703656 L57.4967742,34.0459355 L53.7710108,34.0459355 L56.7088172,14.9876989 L61.007828,14.9876989 Z M145.626839,20.1111398 L145.626839,34.1188817 L142.00843,34.1188817 L142.00843,20.1111398 L145.626839,20.1111398 Z M292.221935,20.1111398 L292.221935,34.1188817 L288.603527,34.1188817 L288.603527,20.1111398 L292.221935,20.1111398 Z M101.706,27.9211613 L101.742108,27.9212043 C97.9447742,27.9212043 97.0845591,29.0312258 97.0845591,30.1433118 C97.0845591,31.0386237 97.6942796,31.6476559 98.7334194,31.6476559 C100.524731,31.6476559 101.706323,29.9636989 101.706323,28.2446452 L101.706,27.9211613 Z M87.0895484,27.9212043 C83.2915269,27.9212043 82.4313118,29.0312258 82.4313118,30.1433118 C82.4313118,31.0386237 83.0410323,31.6476559 84.080172,31.6476559 C85.8714839,31.6476559 87.0895484,29.9636989 87.0895484,28.2446452 L87.0895484,27.9212043 Z M-7.10542736e-15,0.22916129 L28.6953978,15.0248602 L-7.10542736e-15,28.0657204 L-7.10542736e-15,0.22916129 Z M257.865634,22.439914 C256.359914,22.439914 255.322839,23.5499355 255.142538,25.2345806 L260.301075,25.2345806 C260.371957,23.4790538 259.405763,22.439914 257.865634,22.439914 Z M6.87827957,9.79475269 L4.37058065,9.79475269 C4.3347957,11.6569462 4.29901075,13.5563011 4.29901075,15.8128172 C4.29901075,18.5352258 6.01806452,19.6101505 8.4184086,19.6101505 C10.8903226,19.6101505 12.5742796,18.3205161 12.6107527,15.8843871 L12.6107527,15.8843871 L12.6472258,9.82916129 L10.1388387,9.82916129 L10.1030538,15.5974194 C10.1030538,17.2813763 9.24283871,17.639914 8.45488172,17.639914 C7.37926882,17.639914 6.84249462,17.0659785 6.84249462,15.6332043 C6.84249462,13.6629677 6.84249462,11.7292043 6.87827957,9.79475269 L6.87827957,9.79475269 Z M143.835527,13.9492473 C145.053591,13.9492473 146.092043,14.9168172 146.092043,16.1348817 C146.092731,17.3178495 145.053591,18.3205161 143.835527,18.3205161 C142.581677,18.3205161 141.614108,17.3178495 141.614108,16.1348817 C141.614108,14.9526022 142.617462,13.9492473 143.835527,13.9492473 Z M232.035785,13.9492473 C233.289634,13.9492473 234.292301,14.9168172 234.292301,16.1348817 C234.292989,17.3178495 233.290323,18.3205161 232.035785,18.3205161 C230.781935,18.3205161 229.813677,17.3178495 229.813677,16.1348817 C229.813677,14.9526022 230.816344,13.9492473 232.035785,13.9492473 Z M290.393462,13.9492473 C291.647312,13.9492473 292.649979,14.9168172 292.649979,16.1348817 C292.650667,17.3178495 291.648,18.3205161 290.393462,18.3205161 C289.139613,18.3205161 288.172731,17.3178495 288.172731,16.1348817 C288.172731,14.9526022 289.175398,13.9492473 290.393462,13.9492473 Z" id="Combined-Shape"></path>
            </g>
        </g>
    </g>
</svg>